<?xml version="1.0" encoding="utf-8"?>
<!-- Generator: Adobe Illustrator 16.0.4, SVG Export Plug-In . SVG Version: 6.00 Build 0)  -->
<!DOCTYPE svg PUBLIC "-//W3C//DTD SVG 1.1//EN" "http://www.w3.org/Graphics/SVG/1.1/DTD/svg11.dtd">
<svg version="1.1" id="Layer_1" xmlns="http://www.w3.org/2000/svg" xmlns:xlink="http://www.w3.org/1999/xlink" x="0px" y="0px"
	 width="200px" height="200px" viewBox="0 0 200 200" enable-background="new 0 0 200 200" xml:space="preserve">
<g>
	<path fill="#FFFFFF" d="M92.721,130.086c-1.937-1.105-4.4-0.438-5.511,1.497L58.277,182.09l-9.757-21.718
		c5.863-9.438,31.582-50.36,31.866-50.812c1.187-1.889,0.617-4.379-1.27-5.565c-1.885-1.185-4.378-0.62-5.566,1.269
		c-1.272,2.024-31.179,49.613-33.051,52.736c-0.678,1.133-0.761,2.524-0.22,3.729l13.88,30.896c0.622,1.386,1.968,2.305,3.484,2.378
		c0.066,0.004,0.133,0.006,0.199,0.006c1.442,0,2.78-0.771,3.502-2.03l32.872-57.381C95.324,133.661,94.654,131.195,92.721,130.086z
		"/>
	<path fill="#FFFFFF" d="M159.361,157.38c-1.552-2.249-25.756-37.346-42.832-62.106c7.848-13.99,12.048-25.911,13.822-39.357
		c0.871-6.59-2.348-31.604-4.595-38.582l-0.09,0.023c-2.451-11.215-14.335-16.29-23.878-17.215
		c-1.02-0.105-25.021-2.287-30.915,14.877c-0.082,0.238-0.134,0.48-0.17,0.723c-1.524,4.157-4.519,12.53-5.491,16.729l-0.261,1.076
		c-1.381,5.609-5.583,22.68-0.353,38.193c4.89,14.543,73.532,115.085,81.341,126.501c0.764,1.114,2.018,1.758,3.333,1.758
		c0.276,0,0.556-0.029,0.831-0.088c1.599-0.337,2.839-1.604,3.136-3.209l6.767-36.291
		C160.204,159.354,159.971,158.266,159.361,157.38z M72.252,69.165c-4.089-12.13-1.299-25.976,0.164-32.138
		c4.747,15.645,14.152,29.139,20.748,38.603c1.018,1.456,51.025,73.968,58.601,84.952l-4.666,25.027
		C123.224,150.512,75.787,79.682,72.252,69.165z M103.279,76.074c-0.132-0.194-0.271-0.399-0.383-0.566
		c-0.509-0.752-1.054-1.54-1.624-2.362c10.941-18.337,16.786-28.892,19.958-35.09c0.886,7.292,1.438,14.376,1.118,16.805
		c-1.509,11.432-4.759,21.345-10.938,32.998C108.125,83.095,105.319,79.024,103.279,76.074z M96.221,65.847
		c-6.061-8.918-13.165-20.412-16.617-33.033c4.656-3.266,11.306-6.569,17.711-6.569c0.009,0,0.019,0,0.028,0
		c6.374,0.01,13.272,2.01,17.975,5.588C112.776,37.074,107.397,47.019,96.221,65.847z M101,8.178
		c1.534,0.147,15.03,1.723,16.852,11.149c0.039,0.201,0.1,0.391,0.164,0.578c0.169,1.212,0.158,2.527-0.021,3.934
		c-5.952-3.725-13.496-5.658-20.64-5.669c-0.012,0-0.023,0-0.036,0c-6.685,0-13.675,2.728-19.356,6.132
		c-0.205-2.516-0.002-4.759,0.646-6.662c0.067-0.196,0.103-0.396,0.138-0.593C82.984,6.698,100.807,8.157,101,8.178z"/>
</g>
</svg>
