<?xml version="1.0" encoding="utf-8"?>
<!-- Generator: Adobe Illustrator 16.0.4, SVG Export Plug-In . SVG Version: 6.00 Build 0)  -->
<!DOCTYPE svg PUBLIC "-//W3C//DTD SVG 1.1//EN" "http://www.w3.org/Graphics/SVG/1.1/DTD/svg11.dtd">
<svg version="1.1" id="Layer_1" xmlns="http://www.w3.org/2000/svg" xmlns:xlink="http://www.w3.org/1999/xlink" x="0px" y="0px"
	 width="200px" height="200px" viewBox="0 0 200 200" enable-background="new 0 0 200 200" xml:space="preserve">
<path fill="#FFFFFF" d="M66.5,75.843c-1.442,0-2.5,1.169-2.5,2.612v10.623c0,19.999,16,36.27,36,36.27s36-16.271,36-36.27V78.455
	c0-1.442-1.059-2.612-2.5-2.612s-2.5,1.169-2.5,2.612v10.623c0,17.12-13.88,31.047-31,31.047s-31-13.928-31-31.047V78.455
	C69,77.012,67.941,75.843,66.5,75.843z M166.762,196.91l-4.385-25.075C160.536,150.228,141.433,133,119.735,133H80.27
	c-21.694,0-40.801,17.228-42.648,38.835l-4.383,25.243c-0.246,1.422,0.708,2.688,2.129,2.934c1.421,0.242,2.773-0.75,3.017-2.172
	l4.404-25.543c0.014-0.076,0.022-0.44,0.029-0.519C44.387,152.761,61.188,137,80.27,137h1.278l12.517,14.796
	c-0.703,1.168-1.116,2.669-1.116,4.128c0,1.217,0.289,2.432,0.79,3.457l-8.299,9.662c-0.942,1.092-0.82,2.76,0.272,3.701
	c0.494,0.426,1.101,0.643,1.704,0.643c0.733,0,1.463-0.305,1.979-0.904l8.082-9.373c0.987,0.453,2.081,0.715,3.236,0.715
	c1.153,0,2.244-0.258,3.228-0.711l8.083,9.375c0.941,1.092,2.59,1.215,3.684,0.271c1.092-0.941,1.214-2.59,0.272-3.684l-8.296-9.619
	c0.503-1.027,0.793-2.176,0.793-3.395c0-1.459-0.413-2.82-1.115-3.988l12.516-14.516c19.024,0.078,35.743,15.516,37.303,34.486
	c0.006,0.078,0.016,0.154,0.028,0.23l4.403,25.523c0.22,1.27,1.323,2.168,2.571,2.168c0.146,0,0.297-0.014,0.447-0.039
	C166.053,199.684,167.006,198.332,166.762,196.91z M103.325,148.483c-0.817-0.293-1.694-0.323-2.611-0.323
	c-0.917,0-1.793-0.04-2.61,0.253L88.444,137h24.542L103.325,148.483z M91.878,87.938c0-2.326-1.891-4.218-4.215-4.218
	c-2.328,0-4.222,1.892-4.222,4.218c0,2.324,1.894,4.215,4.222,4.215C89.988,92.153,91.878,90.262,91.878,87.938z M118.122,87.938
	c0-2.326-1.891-4.218-4.216-4.218c-2.324,0-4.215,1.892-4.215,4.218c0,2.324,1.891,4.215,4.215,4.215
	C116.231,92.153,118.122,90.262,118.122,87.938z M100.581,114.064c3.9,0,7.073-3.064,7.073-7.064H93.516
	C93.516,111,96.685,114.064,100.581,114.064z M103,95.292v-5.134c0-1.286-1.214-2.329-2.5-2.329S98,88.871,98,90.157v5.134
	c0,1.286,1.214,2.329,2.5,2.329S103,96.578,103,95.292z M64,43.963v24.372C64,69.777,65.111,71,66.553,71h67.284
	c1.442,0,2.163-1.223,2.163-2.666V43.963c6-3.329,10.274-9.769,10.274-16.86c0-10.563-8.482-19.157-19.049-19.157
	c-2.576,0-5.071,0.526-7.44,1.536C115.035,3.505,107.878,0,100.167,0c-7.71,0-14.881,3.506-19.631,9.483
	c-2.367-1.011-4.913-1.538-7.49-1.538c-10.566,0-19.127,8.594-19.127,19.157C53.918,34.194,58,40.634,64,43.963z M73.052,13.168
	c2.449,0,4.867,0.657,6.996,1.898c1.202,0.7,2.74,0.337,3.501-0.825c3.698-5.646,9.922-9.018,16.646-9.018
	c6.726,0,12.948,3.37,16.645,9.015c0.761,1.162,2.298,1.525,3.499,0.827c2.131-1.241,4.551-1.896,6.998-1.896
	c7.686,0,13.938,6.251,13.938,13.935c0,5.587-3.436,10.621-8.58,12.823c-0.959,0.411-1.695,1.355-1.695,2.4V66H69V42.327
	c0-1.045-0.541-1.989-1.5-2.4c-5.145-2.202-8.427-7.236-8.427-12.823C59.073,19.419,65.368,13.168,73.052,13.168z"/>
</svg>
