<?xml version="1.0" encoding="utf-8"?>
<!-- Generator: Adobe Illustrator 16.0.4, SVG Export Plug-In . SVG Version: 6.00 Build 0)  -->
<!DOCTYPE svg PUBLIC "-//W3C//DTD SVG 1.1//EN" "http://www.w3.org/Graphics/SVG/1.1/DTD/svg11.dtd">
<svg version="1.1" id="Layer_1" xmlns="http://www.w3.org/2000/svg" xmlns:xlink="http://www.w3.org/1999/xlink" x="0px" y="0px"
	 width="200px" height="200px" viewBox="0 0 200 200" enable-background="new 0 0 200 200" xml:space="preserve">
<g>
	<path fill="#FFFFFF" d="M179.855,4.48H20.143C9.036,4.48,0,13.518,0,24.625v107.682c0,11.105,9.036,20.143,20.143,20.143h14.427
		l-13.605,37.911c-0.573,1.599-0.033,3.385,1.33,4.396c0.683,0.509,1.49,0.762,2.299,0.762c0.807,0,1.613-0.253,2.295-0.758
		l57.137-42.312h95.831c11.107,0,20.145-9.037,20.145-20.143V24.625C200,13.518,190.963,4.48,179.855,4.48z M192.289,132.308
		c0,6.854-5.576,12.431-12.434,12.431H82.752c-0.827,0-1.631,0.266-2.295,0.758l-47.939,35.501l11.162-31.101
		c0.423-1.181,0.246-2.495-0.477-3.521c-0.722-1.026-1.898-1.638-3.153-1.638H20.143c-6.854,0-12.431-5.576-12.431-12.431V24.625
		c0-6.856,5.576-12.433,12.431-12.433h159.713c6.857,0,12.434,5.577,12.434,12.433V132.308z"/>
	<path fill="#FFFFFF" d="M139.354,92.023c-10.484,10.573-24.461,16.396-39.354,16.396c-14.885,0-28.861-5.822-39.355-16.396
		c-1.501-1.51-3.941-1.52-5.453-0.021c-1.512,1.5-1.521,3.941-0.021,5.453c11.953,12.044,27.873,18.677,44.829,18.677
		c16.964,0,32.888-6.635,44.831-18.678c1.5-1.512,1.49-3.954-0.023-5.453C143.293,90.5,140.854,90.515,139.354,92.023z"/>
	<circle fill="#FFFFFF" cx="77.658" cy="58.417" r="6.366"/>
	<circle fill="#FFFFFF" cx="122.34" cy="58.417" r="6.366"/>
</g>
</svg>
