<?xml version="1.0" encoding="utf-8"?>
<!-- Generator: Adobe Illustrator 16.0.4, SVG Export Plug-In . SVG Version: 6.00 Build 0)  -->
<!DOCTYPE svg PUBLIC "-//W3C//DTD SVG 1.1//EN" "http://www.w3.org/Graphics/SVG/1.1/DTD/svg11.dtd">
<svg version="1.1" id="Layer_1" xmlns="http://www.w3.org/2000/svg" xmlns:xlink="http://www.w3.org/1999/xlink" x="0px" y="0px"
	 width="200px" height="200px" viewBox="0 0 200 200" enable-background="new 0 0 200 200" xml:space="preserve">
<path fill="#FFFFFF" d="M152.42,115.631c-11.017-18.342-31.1-29.736-52.415-29.736c-16.321,0-32.242,6.715-43.682,18.424
	c-11.503,11.771-17.84,27.928-17.39,44.325c0.499,18.105,9.394,35.569,23.796,46.711c0.668,0.516,1.387,0.989,2.149,1.488
	c1.129,0.742,2.296,1.51,3.301,2.442c0.568,0.527,1.232,0.774,2.089,0.774c1.013,0,2.146-0.344,3.24-0.677
	c0.303-0.091,0.601-0.183,0.893-0.264c5.501-1.554,11.017-3.602,16.395-6.086c2.463-1.14,4.926-2.38,7.318-3.688
	c0.147-0.082,0.27-0.159,0.377-0.227c0.334-0.211,0.714-0.452,1.253-0.452c0.362,0,0.721,0.107,1.158,0.344
	c0.614,0.333,1.233,0.662,1.853,0.984c1.445,0.753,2.922,1.484,4.384,2.172c5.312,2.507,10.794,4.622,16.294,6.286
	c0.466,0.14,0.971,0.314,1.495,0.497c1.434,0.498,3.057,1.062,4.417,1.062c0.334,0,0.64-0.035,0.924-0.105
	c1.344-0.322,2.776-1.386,4.039-2.325c0.326-0.242,0.644-0.478,0.95-0.694c3.673-2.606,7.067-5.635,10.094-9.005
	c5.97-6.648,10.5-14.677,13.102-23.217C163.462,148.227,161.263,130.355,152.42,115.631z M101.488,180.286
	c-0.591,0.371-1.058,0.667-1.654,0.667c-0.582,0-1.039-0.28-1.67-0.67c-1.548-0.956-3.071-1.943-4.522-2.934
	c-2.77-1.887-5.446-3.889-7.953-5.952c-4.565-3.756-8.574-7.705-11.939-11.758l-0.023,0.017l-2.808-3.579l0.038-0.029
	c-4.707-6.497-9.5-15.624-8.729-25.188c0.652-8.116,6.875-14.235,14.474-14.235c1.033,0,2.087,0.112,3.133,0.336
	c5.477,1.172,10.908,4.972,16.146,11.29l0.4,0.493c1.089,1.352,1.826,2.18,3.198,2.181c1.354,0,2.096-0.824,3.193-2.17l0.416-0.507
	c5.283-6.303,10.727-10.095,16.18-11.273c1.044-0.228,2.097-0.341,3.132-0.341c7.567,0,13.769,6.116,14.424,14.228
	c0.854,10.593-5.11,20.647-10.263,27.219c-6.145,7.83-14.056,14.94-23.509,21.137C102.6,179.579,102.045,179.936,101.488,180.286z
	 M154.457,154.381c-2.182,15.852-11.549,30.438-25.055,39.02l-0.373,0.237l-0.427-0.114c-7.05-1.868-14.147-4.576-21.1-8.047
	l-1.557-0.776l1.445-0.967c12.494-8.353,33.737-25.74,35.626-48.355c0.752-9.029-2.584-16.977-8.927-21.258
	c-3.462-2.338-7.33-3.523-11.502-3.523c-4.396,0-8.914,1.349-13.068,3.9c-3.189,1.958-6.287,4.549-9.207,7.702l-0.741,0.8
	l-0.742-0.8c-4.513-4.875-11.691-10.852-20.255-11.643c-0.595-0.057-1.201-0.085-1.802-0.085c-7.989,0-15.509,4.825-18.715,12.006
	c-4.163,9.319-1.051,19.775,1.175,25.179c3.542,8.601,9.78,17.022,18.54,25.031c4.344,3.974,9.206,7.726,14.45,11.153l1.464,0.957
	l-1.561,0.79c-5.259,2.66-10.667,4.886-16.076,6.611c-1.348,0.429-2.675,0.822-3.946,1.17c-0.214,0.06-0.436,0.089-0.657,0.089
	c-1.086,0-1.979-0.7-2.698-1.26c-0.164-0.13-0.325-0.256-0.481-0.366c-1.993-1.416-3.914-2.984-5.708-4.662
	c-6.848-6.406-11.992-14.514-14.874-23.445c-5.471-16.951-2.313-35.571,8.447-49.81C66.37,100.372,82.571,92.19,99.474,92.03
	l0.509-0.002c16.742,0,32.923,7.889,43.287,21.102C152.388,124.757,156.466,139.792,154.457,154.381z M100.01,77.988
	c16.204,0,31.319-10.675,36.758-25.962c5.494-15.436,0.337-33.361-12.538-43.593c-6.796-5.399-15.418-8.374-24.277-8.374
	c-7.571,0-14.863,2.132-21.087,6.167c-13.76,8.915-20.636,26.226-16.723,42.096C66.38,65.512,82.306,77.988,100.01,77.988z
	 M93.395,6.782c2.116-0.434,4.281-0.654,6.436-0.654c16.791,0,31.236,12.992,32.886,29.578c0.88,8.855-2.041,17.878-8.02,24.757
	c-5.965,6.862-14.469,11.004-23.334,11.365c-0.437,0.018-0.872,0.026-1.303,0.026c-16.715,0-31.102-12.998-32.752-29.592
	C65.661,25.706,77.119,10.121,93.395,6.782z"/>
</svg>
