<?xml version="1.0" encoding="utf-8"?>
<!-- Generator: Adobe Illustrator 16.0.4, SVG Export Plug-In . SVG Version: 6.00 Build 0)  -->
<!DOCTYPE svg PUBLIC "-//W3C//DTD SVG 1.1//EN" "http://www.w3.org/Graphics/SVG/1.1/DTD/svg11.dtd">
<svg version="1.1" id="Layer_1" xmlns="http://www.w3.org/2000/svg" xmlns:xlink="http://www.w3.org/1999/xlink" x="0px" y="0px"
	 width="200px" height="200px" viewBox="0 0 200 200" enable-background="new 0 0 200 200" xml:space="preserve">
<path fill="#FFFFFF" d="M110.698,50.387c-1.729,0-3.132,1.398-3.132,3.131c0,1.726,1.402,3.129,3.132,3.129
	c1.729,0,3.128-1.403,3.128-3.129C113.826,51.785,112.428,50.387,110.698,50.387z M89.248,50.387c-1.73,0-3.133,1.398-3.133,3.131
	c0,1.726,1.403,3.129,3.133,3.129c1.726,0,3.126-1.403,3.126-3.129C92.374,51.785,90.974,50.387,89.248,50.387z M99.5,61.691
	c1.195,0,2.5-0.969,2.5-2.166v-4.22c0-1.196-1.305-2.166-2.5-2.166c-1.195,0-2.5,0.97-2.5,2.166v4.22
	C97,60.722,98.305,61.691,99.5,61.691z M99.818,73.506c2.493,0,4.512-1.506,4.512-4.506h-9.019
	C95.312,72,97.336,73.506,99.818,73.506z M148.703,131.271l-6.378-20.097C139.027,99.641,124.686,91,108.965,91h-16.99
	c-15.717,0-30.058,8.641-33.358,20.176l-6.29,22.004L42.29,123.156c-0.124-0.123-0.26-0.217-0.401-0.305
	c-0.389-0.512-0.802-1.006-1.269-1.473c-0.846-0.845-2.217-0.844-3.063,0.001c-0.845,0.847-0.845,2.22,0,3.065
	c3.917,3.916,3.917,10.287,0,14.203c-2.962,2.961-7.783,2.963-10.746-0.002c-2.203-2.201-2.203-5.785-0.002-7.984
	c1.593-1.594,4.186-1.594,5.779,0c1.105,1.105,1.105,2.902,0,4.009c-0.846,0.847-0.846,2.218,0,3.063
	c0.846,0.845,2.217,0.845,3.063,0c2.794-2.795,2.794-7.342,0-10.137c-3.282-3.281-8.623-3.281-11.905,0
	c-3.89,3.892-3.889,10.221,0.002,14.111l26.429,26.43l-21.81,5.842c-0.498,0.133-0.868,0.549-0.941,1.061
	c-0.073,0.51,0.165,1.016,0.604,1.283l9.481,5.773c0.204,0.123,0.436,0.188,0.67,0.188c0.111,0,0.224-0.016,0.333-0.044l8.799-2.358
	l-2.358,8.799c-0.091,0.34-0.04,0.702,0.144,1.004l5.77,9.48c0.235,0.387,0.655,0.618,1.1,0.618c0.061,0,0.122-0.005,0.183-0.015
	c0.51-0.072,0.928-0.442,1.061-0.94l5.846-21.812l19.488,19.488c2.327,2.327,5.383,3.491,8.439,3.491
	c3.055-0.001,6.109-1.163,8.436-3.488c5.604-5.604,5.604-14.724,0-20.327c-0.325-0.326-1.012-1.184-1.779-1.844L87.481,168h28.25
	c12.017,0,22.441-4.387,28.603-12.555C149.57,148.504,151.17,139.902,148.703,131.271z M91.975,95h16.99
	c1.032,0,2.059,0.032,3.076,0.118L99.06,110.027L86.447,95.408C88.259,95.136,90.108,95,91.975,95z M54.11,165.949l-20.8-20.803
	c2.669-0.25,5.27-1.395,7.31-3.434c2.734-2.734,4.125-6.307,4.191-9.896l20.036,20.037c0.708,4.016-0.471,8.299-3.567,11.395
	C59.315,165.213,56.686,166.109,54.11,165.949z M93.169,180.177c3.073,3.938,2.808,9.315-0.812,12.935
	c-1.435,1.437-3.342,1.89-5.372,1.89h-0.002c-2.031,0-3.939-0.455-5.375-1.892l-18.893-18.724c2.122-0.946,4.11-2.198,5.848-3.937
	c2.694-2.695,4.574-5.854,5.666-9.256L93.169,180.177z M140.875,152.973c-5.334,7.072-14.5,11.027-25.145,11.027H83.619
	L55.82,136.45l6.961-24.376c1.788-6.251,7.865-11.613,15.655-14.632c0.154,0.448,0.391,0.906,0.719,1.287l16.965,19.806
	c0.731,0.85,1.796,1.465,2.917,1.465h0.009c1.117,0,2.181-0.592,2.914-1.436l18.131-20.891c0.226-0.259,0.394-0.543,0.538-0.847
	c8.684,2.835,15.609,8.625,17.549,15.409l6.379,20.094C146.658,139.689,145.352,147.039,140.875,152.973z M98.608,123.281
	c-5.454,0-9.892,4.438-9.892,9.892s4.438,9.892,9.892,9.892c5.455,0,9.892-4.438,9.892-9.892S104.062,123.281,98.608,123.281z
	 M55.496,20.076L71.75,25.97c-1.26,3.282-1.976,6.829-2.003,10.538c-0.004,0.577,0.231,1.132,0.638,1.542
	c0.401,0.405,0.716,0.632,1.287,0.638C71.392,40.38,71,42.136,71,43.966v8.808c0,0.96,0.085,1.934,0.085,2.92
	c0,15.712,12.901,28.494,28.612,28.494c15.712,0,28.487-12.782,28.487-28.494c0-1.054-0.185-2.093-0.185-3.117v-6.913
	c0-2.281-0.276-4.502-0.912-6.666C127.404,38.99,127.79,39,128.107,39h0.014c1.195,0,2.166-1.125,2.166-2.32
	c0-0.089-0.005-0.254-0.016-0.34c-0.058-3.623-0.771-7.138-2.006-10.365l6.156-2.236c0.873,0.416,2.557,1.537,2.98,4.144
	c0.158,0.955,0.187,2.419-0.57,3.98c-0.03,0.062-0.059,0.126-0.082,0.191c-0.198,0.535-1.452,3.313-0.766,5.505
	c0.072,0.23,0.015,0.439,0.015,0.624c0,0.003,0,0.007,0,0.01c0,0.149,0.088,0.309,0.017,0.488
	c-3.982,10.058,1.219,14.848,1.436,15.047c0.416,0.381,1.014,0.569,1.535,0.569c0.587,0,1.209-0.236,1.637-0.702
	c0.809-0.881,0.768-2.251-0.114-3.06c-0.02-0.018-1.222-1.238-1.386-3.956c1.09,1.856,2.641,3.63,4.805,4.606
	c1.09,0.492,2.375,0.007,2.867-1.083c0.491-1.09,0.008-2.373-1.082-2.865c-3.02-1.362-4.419-6.222-4.703-7.975
	c-0.084-0.53-0.359-0.994-0.754-1.323c0.268-0.496,0.344-1.095,0.162-1.675c-0.156-0.5,0.064-1.76,0.365-2.623
	c1.199-2.543,1.15-4.915,0.896-6.461c-0.38-2.328-1.365-3.997-2.466-5.182l5.31-1.925c0.855-0.311,1.428-1.125,1.428-2.036
	s-0.571-1.726-1.428-2.036L100.745,0.129c-0.478-0.173-1-0.173-1.477,0L55.496,16.003c-0.856,0.311-1.427,1.125-1.427,2.036
	C54.069,18.951,54.64,19.765,55.496,20.076z M99.815,79.856c-13.322,0-24.16-10.84-24.16-24.163c0-6.07,2.253-11.619,5.961-15.868
	c6.197,1.458,12.043,4.292,17.025,8.336c0.397,0.323,0.882,0.484,1.365,0.484s0.967-0.028,1.365-0.351
	c3.484-2.829,7.396-5.032,11.551-6.592c5.99,2.802,11.038,7.07,11.038,13.507c0,0.025,0.006,0.048,0.007,0.072
	c0.002,0.137,0.012,0.273,0.012,0.411C123.979,69.017,113.139,79.856,99.815,79.856z M100.008,43.733
	c-7.457-5.604-16.493-8.863-25.827-9.319c0.218-2.436,0.781-4.773,1.631-6.97l23.456,8.506c0.238,0.086,0.488,0.129,0.738,0.129
	s0.5-0.043,0.738-0.129l23.461-8.509c0.852,2.197,1.415,4.536,1.634,6.972C116.514,34.867,107.473,38.126,100.008,43.733z
	 M100.007,4.469l37.425,13.568L100.007,31.61l-37.42-13.57L100.007,4.469z"/>
</svg>
