<?xml version="1.0" encoding="utf-8"?>
<!-- Generator: Adobe Illustrator 16.0.4, SVG Export Plug-In . SVG Version: 6.00 Build 0)  -->
<!DOCTYPE svg PUBLIC "-//W3C//DTD SVG 1.1//EN" "http://www.w3.org/Graphics/SVG/1.1/DTD/svg11.dtd">
<svg version="1.1" id="Layer_1" xmlns="http://www.w3.org/2000/svg" xmlns:xlink="http://www.w3.org/1999/xlink" x="0px" y="0px"
	 width="200px" height="200px" viewBox="0 0 200 200" enable-background="new 0 0 200 200" xml:space="preserve">
<path fill="#FFFFFF" d="M141.512,65.794c1.839,0,3.333-1.493,3.333-3.328c0-1.838-1.494-3.333-3.333-3.333
	c-1.838,0-3.332,1.495-3.332,3.333C138.18,64.301,139.674,65.794,141.512,65.794z M151.496,82.359c2.412,0,4.364-1.359,4.364-4.359
	h-8.719C147.142,81,149.095,82.359,151.496,82.359z M151.5,70.722c1.013,0,1.5-0.821,1.5-1.833v-5.505
	c0-1.013-0.487-1.834-1.5-1.834c-1.012,0-1.5,0.821-1.5,1.834v5.505C150,69.901,150.488,70.722,151.5,70.722z M162.254,65.794
	c1.839,0,3.333-1.493,3.333-3.328c0-1.838-1.494-3.333-3.333-3.333c-1.838,0-3.332,1.495-3.332,3.333
	C158.922,64.301,160.416,65.794,162.254,65.794z M198.903,136.992l-6.166-19.471C189.558,106.389,175.717,98,160.54,98h-16.421
	c-15.18,0-29.023,8.389-32.202,19.521l-7.883,27.248c-0.055,0.19-0.07,0.23-0.07,0.23H2.056C0.921,145,0,146.365,0,147.5
	s0.921,2.5,2.056,2.5h153.409c1.135,0,2.055-1.365,2.055-2.5s-0.92-2.5-2.055-2.5h-47.318l7.725-26.694
	c1.805-6.32,8.144-11.532,16.17-14.325l17.363,20.228c0.391,0.452,0.959,0.755,1.558,0.755c0.598,0,1.166-0.239,1.558-0.691
	l17.941-20.805c9.03,2.529,16.363,8.311,18.339,15.229l6.167,19.48c2.036,7.121,0.772,14.258-3.559,20
	C186.247,165.021,177.377,169,167.077,169h-32.895c-1.135,0-2.056,0.865-2.056,2s0.921,2,2.056,2h32.895
	c11.603,0,21.668-4.516,27.615-12.402C199.744,153.898,201.285,145.318,198.903,136.992z M150.962,119.801l-14.541-16.92
	c2.49-0.532,5.076-0.881,7.698-0.881h16.421c1.8,0,3.582,0.196,5.33,0.454L150.962,119.801z M151.495,92.694
	C166.667,92.694,179,80.35,179,65.178v-9.631c0-15.172-12.333-27.516-27.505-27.516C136.328,28.031,124,40.375,124,55.547v9.631
	C124,80.35,136.328,92.694,151.495,92.694z M128.321,65.011c0-12.84,8.212-21.834,22.431-25.083l-1.127,3.691
	c-0.185,0.622-0.083,1.294,0.306,1.813c0.388,0.519,0.989,0.825,1.638,0.825c11.283,0,23.374,6.257,23.374,16.366
	c0,0.086,0.058,0.169,0.058,0.253v2.302c0,12.904-10.538,23.403-23.443,23.403c-12.664,0-23.008-10.126-23.381-22.707
	C128.281,65.611,128.321,65.321,128.321,65.011z M16.689,121.668c1.938,4.721,6.97,8.332,11.457,8.332h57.366
	c2.287,0,4.171-0.846,5.308-2.541c1.3-1.939,1.402-4.576,0.296-7.268L79.744,90.547C77.802,85.827,72.77,82,68.289,82H10.923
	c-2.289,0-4.175,1.086-5.312,2.783c-1.3,1.94-1.4,4.651-0.292,7.339L16.689,121.668z M9.028,87.015
	C9.387,86.479,10.024,86,10.923,86h57.365c2.839,0,6.344,2.896,7.637,6.033l11.371,29.617c0.583,1.423,0.625,2.753,0.108,3.522
	c-0.358,0.534-0.995,0.827-1.893,0.827H28.146c-2.843,0-6.347-2.657-7.636-5.796L9.138,90.601
	C8.554,89.181,8.513,87.785,9.028,87.015z M20.392,138c0,2.025,1.642,4,3.667,4h68.453c2.025,0,3.667-1.975,3.667-4
	s-1.642-4-3.667-4H24.059C22.034,134,20.392,135.975,20.392,138z"/>
</svg>
