<?xml version="1.0" encoding="utf-8"?>
<!-- Generator: Adobe Illustrator 16.0.4, SVG Export Plug-In . SVG Version: 6.00 Build 0)  -->
<!DOCTYPE svg PUBLIC "-//W3C//DTD SVG 1.1//EN" "http://www.w3.org/Graphics/SVG/1.1/DTD/svg11.dtd">
<svg version="1.1" id="Layer_1" xmlns="http://www.w3.org/2000/svg" xmlns:xlink="http://www.w3.org/1999/xlink" x="0px" y="0px"
	 width="200px" height="200px" viewBox="0 0 200 200" enable-background="new 0 0 200 200" xml:space="preserve">
<path fill="#FFFFFF" d="M199.226,44.222c-0.609-0.793-1.508-1.31-2.499-1.436c-1.449-0.186-35.696-4.295-60.679,14.577
	c-24.993,18.885-30.597,58.355-30.823,60.027c-0.151,1.128,0.227,2.194,0.927,2.983c-6.814,10.545-11.162,21.054-13.775,31.143
	c-2.662-12.814-6.169-24.057-10.072-33.874c0.494-0.531,0.847-1.202,0.963-1.974c0.256-1.684,6.006-41.578-15.355-71.268
	C46.567,14.741,6.917,7.496,5.24,7.202c-0.995-0.174-2.017,0.06-2.835,0.648c-0.82,0.59-1.366,1.484-1.518,2.482
	c-0.254,1.684-5.995,41.581,15.355,71.256c11.22,15.597,27.655,24.863,39.468,29.89c1.901,0.804,4.104-0.076,4.916-1.981
	c0.811-1.905-0.076-4.106-1.981-4.917C47.713,99.929,32.54,91.403,22.329,77.211C6.521,55.24,7.072,26.026,7.889,15.468
	c10.262,2.57,38.101,11.302,53.937,33.31C75.29,67.491,76.89,91.441,76.562,104.663C62.407,75.954,46.103,63.231,44.961,62.366
	c-1.648-1.248-4-0.929-5.25,0.723c-1.251,1.648-0.929,4,0.722,5.251c0.431,0.327,41.943,32.712,48.693,113.23
	c0.095,2.728,0.279,5.381,0.549,7.932c0.01,0.095,0.04,0.182,0.057,0.274c0.02,0.113,0.036,0.229,0.068,0.34
	c0.033,0.119,0.08,0.232,0.125,0.348c0.04,0.102,0.076,0.208,0.124,0.305c0.056,0.112,0.125,0.216,0.19,0.322
	c0.057,0.088,0.107,0.18,0.169,0.263c0.077,0.102,0.165,0.193,0.252,0.285c0.068,0.074,0.133,0.154,0.208,0.223
	c0.093,0.087,0.197,0.158,0.299,0.234c0.082,0.062,0.158,0.127,0.243,0.182c0.111,0.069,0.229,0.123,0.348,0.182
	c0.088,0.043,0.173,0.093,0.265,0.129c0.138,0.057,0.283,0.09,0.428,0.13c0.08,0.021,0.156,0.052,0.238,0.066
	c0.23,0.047,0.467,0.07,0.71,0.07l0,0l0,0c0.068,0,0.137-0.002,0.206-0.005c0.021-0.002,0.038-0.009,0.061-0.009
	c0.045-0.003,0.088-0.003,0.133-0.008c0.09-0.009,0.17-0.038,0.256-0.054c0.135-0.024,0.27-0.045,0.399-0.083
	c0.111-0.033,0.217-0.078,0.323-0.119c0.121-0.049,0.242-0.096,0.355-0.153c0.105-0.055,0.2-0.12,0.298-0.184
	c0.105-0.067,0.21-0.135,0.307-0.211c0.091-0.073,0.173-0.154,0.258-0.236c0.088-0.087,0.178-0.17,0.258-0.263
	c0.075-0.09,0.138-0.184,0.204-0.278c0.072-0.102,0.146-0.202,0.207-0.311c0.057-0.102,0.1-0.206,0.147-0.313
	c0.052-0.114,0.104-0.228,0.144-0.348c0.038-0.112,0.062-0.23,0.088-0.348c0.026-0.121,0.057-0.241,0.071-0.365
	c0.017-0.125,0.016-0.252,0.019-0.378c0.002-0.095,0.019-0.188,0.014-0.285c-0.135-2.512-0.313-4.968-0.51-7.396
	c-1.831-48.355,30.851-80.285,59.395-98.809c1.735-1.127,2.229-3.447,1.104-5.185c-1.129-1.736-3.449-2.23-5.185-1.104
	c-15.998,10.383-28.161,21.349-37.327,32.438c3.111-12.395,10.472-33.813,25.943-45.506c17.851-13.482,41.911-13.862,51.27-13.416
	c-2.048,10.152-9.058,37.405-27.236,51.131c-7.615,5.75-17.137,9.74-28.311,11.858c-2.033,0.384-3.369,2.346-2.983,4.381
	c0.384,2.034,2.355,3.365,4.381,2.982c12.313-2.334,22.889-6.788,31.431-13.238c25.008-18.886,30.624-58.363,30.85-60.035
	C200.101,46.018,199.835,45.015,199.226,44.222z"/>
</svg>
