<?xml version="1.0" encoding="utf-8"?>
<!-- Generator: Adobe Illustrator 16.0.4, SVG Export Plug-In . SVG Version: 6.00 Build 0)  -->
<!DOCTYPE svg PUBLIC "-//W3C//DTD SVG 1.1//EN" "http://www.w3.org/Graphics/SVG/1.1/DTD/svg11.dtd">
<svg version="1.1" id="Layer_1" xmlns="http://www.w3.org/2000/svg" xmlns:xlink="http://www.w3.org/1999/xlink" x="0px" y="0px"
	 width="200px" height="200px" viewBox="0 0 200 200" enable-background="new 0 0 200 200" xml:space="preserve">
<g>
	<path fill="#FFFFFF" d="M161.339,36.512l16.347-10.149c0.021-0.014,0.043-0.026,0.064-0.039l0.146-0.091
		c0.198-0.119,0.399-0.238,0.595-0.368c0.021-0.013,0.043-0.028,0.064-0.044c0.024-0.016,0.05-0.032,0.075-0.049
		c5.806-3.999,11.523-14.496,6.911-21.206C183.52,1.622,179.823,0,175.132,0c-0.521,0-1.048,0.021-1.576,0.059
		c-0.182,0.013-0.362,0.04-0.543,0.058c-0.348,0.034-0.695,0.065-1.041,0.114c-0.212,0.03-0.42,0.074-0.631,0.109
		c-0.315,0.053-0.631,0.103-0.942,0.169c-0.221,0.047-0.438,0.106-0.656,0.159c-0.294,0.072-0.59,0.14-0.88,0.221
		c-0.224,0.063-0.44,0.138-0.661,0.208c-0.277,0.087-0.554,0.171-0.824,0.268c-0.219,0.079-0.43,0.167-0.644,0.252
		c-0.258,0.103-0.518,0.203-0.769,0.313c-0.209,0.093-0.408,0.194-0.61,0.293c-0.24,0.117-0.48,0.232-0.71,0.357
		c-0.195,0.106-0.378,0.219-0.566,0.331c-0.155,0.093-0.324,0.18-0.475,0.278l-0.288,0.12l-0.396,0.354
		c-0.215,0.158-0.423,0.322-0.625,0.492L142.282,19.45L69.757,6.306c-2.371-0.438-5.486,0.25-7.435,1.59l-4.42,3.04
		c-1.701,1.167-2.65,2.99-2.54,4.879c0.109,1.889,1.265,3.588,3.073,4.541l3.193,1.696c-32.142,14.716-54.54,47.164-54.54,84.765
		c0,0.246,0.018,0.49,0.02,0.734c-0.011,0.117-0.036,0.23-0.036,0.348c0,0.197,0.03,0.389,0.059,0.578
		c0.201,11.367,2.444,22.24,6.382,32.273c-1.557,0.043-3.012,0.988-3.625,2.516c-0.844,2.072,0.165,4.424,2.22,5.266
		c0.495,0.199,1.009,0.293,1.523,0.293c1.084,0,2.105-0.469,2.864-1.246c6.504,13.312,16.087,24.855,27.82,33.697
		c-0.091,0.367-0.15,0.746-0.135,1.146c0.111,2.164,1.891,3.852,4.037,3.852c0.074,0,0.129,0,0.183,0
		c0.788-0.039,1.507-0.311,2.11-0.734c14.225,9.023,31.039,14.309,49.064,14.441c0.125,0.004,0.249,0.02,0.374,0.02
		c0.04,0,0.076-0.004,0.115-0.004c0.069,0,0.14,0.004,0.211,0.004c51.379,0,93.181-41.801,93.181-93.184
		C193.457,78.778,180.995,53.61,161.339,36.512z M21.779,129.906c-1.093-0.689-2.385-0.779-3.514-0.379
		c-1.568-5.654-2.571-11.537-2.934-17.594h16.667c-0.446,1.41-0.105,3.014,1.027,4.121c0.791,0.754,1.799,1.137,2.808,1.137
		c1.046,0,2.11-0.404,2.899-1.229c1.077-1.102,1.365-2.656,0.926-4.029h12.265c0.364,13.658,2.189,26.438,5.171,37.809H26.828
		c-2.346-3.996-4.374-8.199-6.051-12.576c0.896-0.27,1.708-0.834,2.25-1.697C24.219,133.594,23.669,131.1,21.779,129.906z
		 M66.885,14.556c0.185-0.114,0.724-0.273,1.263-0.298c0.052-0.002,0.104-0.011,0.158-0.01l76.045,13.782l1.412-1.079
		c0.001-0.001,0.003-0.002,0.005-0.003l21.5-16.433l0.152-0.123c0.041-0.034,0.084-0.063,0.124-0.097l0.273-0.113l0.264-0.264
		c0.047-0.029,0.097-0.057,0.146-0.084c0.394-0.236,0.833-0.458,1.316-0.655c0.056-0.023,0.117-0.044,0.174-0.066
		c0.504-0.197,1.036-0.375,1.595-0.521c0.047-0.013,0.096-0.022,0.142-0.034c0.577-0.146,1.172-0.266,1.769-0.348
		c0.027-0.004,0.054-0.005,0.081-0.009c0.618-0.082,1.236-0.128,1.829-0.128c2.09,0,3.391,0.535,3.754,1.065
		c0.14,0.202,0.221,0.471,0.257,0.783c0.012,0.107-0.01,0.246-0.008,0.365c0.002,0.225,0.008,0.446-0.03,0.703
		c-0.023,0.164-0.077,0.35-0.114,0.524c-0.054,0.245-0.103,0.485-0.183,0.747c-0.063,0.199-0.149,0.408-0.225,0.615
		c-0.097,0.257-0.189,0.514-0.307,0.778c-0.097,0.216-0.211,0.434-0.32,0.651c-0.131,0.262-0.262,0.522-0.412,0.782
		c-0.125,0.218-0.264,0.431-0.401,0.644c-0.163,0.254-0.328,0.507-0.505,0.751c-0.149,0.206-0.309,0.4-0.467,0.596
		c-0.191,0.233-0.385,0.462-0.587,0.678c-0.169,0.179-0.341,0.346-0.517,0.51c-0.133,0.125-0.271,0.234-0.408,0.349l-0.568,0.084
		l-0.556,0.739l-24.702,15.335l-0.327,1.73c0,0.004-0.002,0.008-0.004,0.014l-14.007,74.012c-0.082,0.334-0.541,1.029-0.79,1.219
		l-0.964,0.66l-7.688-62.859l-21.656,13.443l-6.874,4.267l0,0l-1.537,0.955l-0.31,1.783l0,0L91.271,89.59
		c-0.077,0.317-0.508,0.98-0.74,1.161l-0.993,0.682L87.992,79.29c0,0,0-0.003,0-0.005l-0.794-6.233l-5.342,3.319l-4.725,3.054
		l4.679-3.577c0,0,0-0.002,0.002-0.002l4.968-3.801l-5.513-2.961l0,0l-11.226-6.027l0.954-0.658
		c0.167-0.103,0.823-0.253,1.369-0.291l21.809,4.286L122.1,45.039L65.943,15.203L66.885,14.556z M107.202,46.266l-2.99,2.287v-3.876
		L107.202,46.266z M104.212,71.989l11.303-7.016h3.291l4.756,38.888h-19.35V71.989z M64.234,69.103l7.699,4.134l-0.854,0.653
		c-1.697,1.202-2.837,2.985-3.215,5.034c-0.383,2.087,0.068,4.195,1.264,5.923c1.481,2.17,3.937,3.466,6.562,3.466
		c1.234,0,2.432-0.294,3.522-0.84c0.301-0.15,0.597-0.311,0.878-0.499l0.688-0.427l1.279,10.047c0.371,2.901,2.55,4.927,5.295,4.927
		c1.143,0,2.286-0.367,3.312-1.069l4.451-3.057c0.354-0.246,0.693-0.541,1.021-0.855v7.321H59.964
		C60.174,91.493,61.695,79.702,64.234,69.103z M96.138,111.934v37.809H65.593c-3.187-11.289-5.181-24.172-5.582-37.809H96.138z
		 M104.212,111.934h20.339l0.688,5.639c0.36,2.912,2.534,4.949,5.288,4.949c1.154,0,2.308-0.377,3.316-1.08l4.447-3.049
		c0.476-0.33,0.932-0.732,1.36-1.184c-0.704,11.684-2.569,22.713-5.34,32.533h-30.099V111.934z M148.011,103.861
		c-0.084-5.583-0.401-11.032-0.951-16.302l4.273-22.586h23.013c6.555,11.561,10.479,24.791,10.962,38.888H148.011z M96.138,40.387
		v14.34l-2.84,2.173h-5.563l-13.81-2.714c-1.627-0.321-3.612-0.098-5.342,0.504c3.372-9.083,7.574-16.745,12.344-22.385
		L96.138,40.387z M26.203,64.973h30.61c-2.181,8.599-3.706,17.977-4.444,27.917c-1.534,1.427-1.756,3.796-0.442,5.458
		c0.036,0.046,0.083,0.076,0.12,0.12c-0.077,1.781-0.127,3.581-0.156,5.393h-2.704c-0.07-0.85-0.393-1.689-1.003-2.375
		c-1.487-1.652-4.037-1.799-5.689-0.314c-0.807,0.721-1.249,1.691-1.33,2.689H15.239C15.722,89.764,19.646,76.534,26.203,64.973z
		 M96.138,157.816v33.697c-11.264-2.387-21.328-15.199-27.971-33.697H96.138z M104.212,191.41v-33.594h27.524
		C125.182,176.068,115.294,188.783,104.212,191.41z M173.72,149.742h-30.914c2.981-11.371,4.808-24.15,5.173-37.809h37.238
		C184.397,125.664,180.307,138.516,173.72,149.742z M169.149,56.9h-16.288l2.773-14.654C160.688,46.585,165.229,51.5,169.149,56.9z
		 M70.846,26.949l2.774,1.474C67.763,35.726,62.818,45.437,59.129,56.9h-27.73C41.224,43.377,54.913,32.84,70.846,26.949z
		 M32.182,157.816h27.304c4.25,12.797,10.077,23.352,17,30.701C58.592,183.299,43.108,172.369,32.182,157.816z M123.188,188.768
		c7.024-7.357,12.932-18.012,17.227-30.951h27.953C157.263,172.605,141.453,183.654,123.188,188.768z"/>
	<path fill="#FFFFFF" d="M24.678,125.961c0.735,0.605,1.632,0.9,2.532,0.9c1.175,0,2.349-0.514,3.137-1.484
		c1.414-1.729,1.138-4.275-0.586-5.691c-1.726-1.395-4.275-1.135-5.671,0.588C22.678,122.02,22.935,124.549,24.678,125.961z"/>
	<path fill="#FFFFFF" d="M35.834,177.76v-0.02c-2.22-0.293-4.238,1.266-4.532,3.471c-0.312,2.217,1.247,4.234,3.449,4.551
		c0.183,0.018,0.367,0.035,0.532,0.035c2,0,3.743-1.486,4.017-3.504C39.595,180.088,38.036,178.053,35.834,177.76z"/>
	<path fill="#FFFFFF" d="M63.136,84.79c-1.816,1.283-2.256,3.798-0.973,5.614c0.79,1.119,2.037,1.706,3.304,1.706
		c0.807,0,1.614-0.238,2.329-0.734c1.817-1.284,2.238-3.816,0.955-5.632C67.467,83.926,64.953,83.487,63.136,84.79z"/>
	<path fill="#FFFFFF" d="M11.284,166.291c-1.926,1.121-2.55,3.598-1.432,5.523c0.752,1.285,2.11,1.98,3.487,1.98
		c0.697,0,1.394-0.164,2.035-0.547c1.928-1.141,2.57-3.617,1.432-5.523C15.688,165.797,13.21,165.154,11.284,166.291z"/>
	<path fill="#FFFFFF" d="M24.66,174.605c-2-0.975-4.422-0.146-5.413,1.854c-0.973,1.998-0.147,4.422,1.872,5.393
		c0.568,0.293,1.174,0.422,1.762,0.422c1.485,0,2.935-0.846,3.632-2.275C27.486,178,26.66,175.576,24.66,174.605z"/>
	<path fill="#FFFFFF" d="M10.587,161.338c2.129,0,3.908-1.65,4.017-3.799c0.129-2.221-1.559-4.127-3.797-4.256
		c-2.22-0.129-4.128,1.559-4.257,3.799c-0.129,2.217,1.579,4.127,3.799,4.256C10.422,161.338,10.514,161.338,10.587,161.338z"/>
</g>
</svg>
