<?xml version="1.0" encoding="utf-8"?>
<!-- Generator: Adobe Illustrator 16.0.4, SVG Export Plug-In . SVG Version: 6.00 Build 0)  -->
<!DOCTYPE svg PUBLIC "-//W3C//DTD SVG 1.1//EN" "http://www.w3.org/Graphics/SVG/1.1/DTD/svg11.dtd">
<svg version="1.1" id="Layer_1" xmlns="http://www.w3.org/2000/svg" xmlns:xlink="http://www.w3.org/1999/xlink" x="0px" y="0px"
	 width="200px" height="200px" viewBox="0 0 200 200" enable-background="new 0 0 200 200" xml:space="preserve">
<path fill="#FFFFFF" d="M113.516,36.466c0.376,0.258,0.817,0.393,1.266,0.393c0.144,0,0.287-0.014,0.43-0.042
	c16.076-3.143,26.826-18.831,23.964-34.97c-0.105-0.591-0.443-1.116-0.938-1.455c-0.495-0.34-1.106-0.466-1.696-0.35
	c-7.821,1.535-14.611,6.001-19.122,12.574c-4.516,6.581-6.234,14.534-4.84,22.396C112.684,35.603,113.021,36.126,113.516,36.466z
	 M135.075,5.004c0.994,12.094-6.768,23.421-18.397,26.852C115.686,19.771,123.446,8.443,135.075,5.004z M155.478,134.235h-31.279
	c4.772-1.928,10.189-6.311,15.298-12.527c7.285-8.864,12.359-19.586,13.923-29.417c1.323-8.336,0.913-16.209-1.22-23.4
	c-0.019-0.067-0.038-0.132-0.061-0.198c-0.004-0.013-0.008-0.025-0.011-0.038c-4.513-14.985-16.322-25.45-28.769-25.45
	c-5.688,0.014-9.345,1.872-12.015,3.229c-0.399,0.203-0.779,0.392-1.148,0.57c-0.692-19.125-8.69-27.159-9.046-27.505l-3.135,3.195
	c0.02,0.019,1.956,1.982,3.869,6.252c1.644,3.668,3.575,9.785,3.853,18.567c-0.685-0.258-1.432-0.631-2.275-1.054
	c-2.668-1.338-6.32-3.17-11.969-3.17h-0.064c-6.851,0.017-13.998,3.47-19.61,9.474c-7.871,8.419-11.729,20.424-10.86,33.808
	c0.137,2.061,0.361,4.014,0.686,5.969c1.611,9.815,6.735,20.503,14.059,29.325c5.069,6.107,10.431,10.427,15.167,12.373H20.575
	c-1.235,0-2.237,1.001-2.237,2.237c0,1.235,1.002,2.237,2.237,2.237c11.972,0,21.71,9.739,21.71,21.71s-9.738,21.71-21.71,21.71
	c-1.235,0-2.237,1.002-2.237,2.238c0,1.235,1.002,2.237,2.237,2.237h69.472v11.156c0,0.899,0.538,1.712,1.367,2.062
	c0.28,0.119,0.576,0.177,0.87,0.177c0.571,0,1.134-0.219,1.56-0.633l6.334-6.157l6.535,6.179c0.649,0.613,1.601,0.783,2.422,0.429
	c0.82-0.354,1.353-1.161,1.353-2.056v-11.156h44.99c14.438,0,26.185-11.746,26.185-26.186
	C181.662,145.981,169.916,134.235,155.478,134.235z M79.146,119.004c-6.83-8.227-11.6-18.139-13.086-27.194
	c-0.301-1.812-0.508-3.625-0.636-5.535c-0.786-12.134,2.646-22.951,9.664-30.458c4.772-5.104,10.732-8.04,16.405-8.054
	c4.589,0,7.443,1.432,9.961,2.695c1.942,0.974,3.776,1.895,5.974,1.894c1.139-0.008,2.292-0.271,3.623-0.827l0.003-0.001
	c0.052-0.018,0.103-0.037,0.152-0.059c0.718-0.307,1.421-0.665,2.165-1.042c2.521-1.281,5.378-2.732,10.039-2.744
	c11.624,0,21.077,11.174,24.42,22.225c0.018,0.065,0.037,0.127,0.059,0.191c0.003,0.01,0.006,0.021,0.009,0.031
	c1.951,6.556,2.321,13.776,1.102,21.461c-3.154,19.833-21.147,39.25-29.843,39.277c-2.375,0-3.503-0.502-4.369-1.044
	c-0.298-0.187-0.573-0.382-0.846-0.573c-1.34-0.944-3.008-2.118-6.319-2.118c-3.302,0.013-4.963,1.196-6.298,2.148
	c-1.285,0.915-2.3,1.638-5.265,1.645l-0.015,2.237v-2.237C91.79,130.923,85.156,126.244,79.146,119.004z M113.536,134.235h-11.721
	c0.842-0.414,1.504-0.884,2.105-1.312c1.146-0.817,1.839-1.311,3.728-1.317c1.867,0,2.563,0.49,3.716,1.302
	c0.338,0.237,0.681,0.478,1.05,0.709C112.74,133.82,113.109,134.032,113.536,134.235z M90.047,182.13H35.202
	c2.386-1.612,4.484-3.615,6.224-5.904h48.621V182.13z M90.047,171.75H44.173c1.236-2.563,2.065-5.356,2.406-8.298h43.468V171.75z
	 M106.012,192.567l-4.318-4.084c-0.432-0.408-0.984-0.611-1.537-0.611c-0.563,0-1.126,0.212-1.56,0.633l-4.074,3.961v-29.014h11.489
	V192.567z M108.25,158.938H92.284c-0.133,0-0.262,0.018-0.389,0.04H46.715c-0.159-2.916-0.795-5.706-1.835-8.294h62.704
	c1.236,0,2.238-1.002,2.238-2.237s-1.002-2.237-2.238-2.237H42.549c-1.924-2.964-4.422-5.521-7.347-7.499h69.19
	c11.971,0,21.71,9.739,21.71,21.71c0,9.854-6.604,18.187-15.615,20.827v-20.071C110.487,159.939,109.485,158.938,108.25,158.938z
	 M155.478,182.13h-36.463c6.971-4.709,11.562-12.682,11.562-21.71c0-9.025-4.59-17-11.559-21.71h36.459
	c11.971,0,21.71,9.739,21.71,21.71S167.448,182.13,155.478,182.13z"/>
</svg>
