<?xml version="1.0" encoding="utf-8"?>
<!-- Generator: Adobe Illustrator 16.0.4, SVG Export Plug-In . SVG Version: 6.00 Build 0)  -->
<!DOCTYPE svg PUBLIC "-//W3C//DTD SVG 1.1//EN" "http://www.w3.org/Graphics/SVG/1.1/DTD/svg11.dtd">
<svg version="1.1" id="Layer_1" xmlns="http://www.w3.org/2000/svg" xmlns:xlink="http://www.w3.org/1999/xlink" x="0px" y="0px"
	 width="200px" height="200px" viewBox="0 0 200 200" enable-background="new 0 0 200 200" xml:space="preserve">
<path fill="#FFFFFF" d="M185.986,70.358V56.351h-14.008V42.342H0v87.297h14.009v14.014h14.008v14.006H200v-87.3H185.986z
	 M5.112,124.527V47.454h161.755v77.073H5.112z M19.121,138.541v-8.902h152.857V61.462h8.896v77.079H19.121z M194.889,152.547H33.129
	v-8.895h152.857V75.471h8.902V152.547z M80.343,77.622c0,1.72,1.203,2.407,4.126,3.095l0.573-6.648
	C82.291,74.412,80.343,75.73,80.343,77.622z M87.507,87.48l-0.631,7.107c3.153-0.115,5.904-1.204,5.904-3.726
	C92.78,89.143,90.945,88.283,87.507,87.48z M85.989,54.062c-17.631,0-31.924,14.299-31.924,31.93
	c0,17.635,14.293,31.923,31.924,31.923c17.633,0,31.927-14.288,31.927-31.923C117.916,68.361,103.622,54.062,85.989,54.062z
	 M86.704,99.402l-0.516,6.133l-4.586-0.4l0.517-6.076c-4.299-0.688-9.057-2.694-9.057-6.936c0-2.12,1.434-3.726,3.554-3.726
	c2.006,0,3.669,1.376,3.669,3.438c0,0.517-0.115,1.146-0.229,1.663c0.631,0.401,1.72,0.631,2.923,0.859l0.688-7.681
	c-4.7-1.146-9.458-3.095-9.458-8.425c0-4.7,4.127-8.426,11.006-8.827l0.343-3.897l4.586,0.401L89.8,69.655
	c4.069,0.572,8.54,2.407,8.54,6.477c0,2.235-1.376,3.668-3.382,3.668c-2.235,0-3.61-1.49-3.61-3.438
	c0-0.459,0.057-1.146,0.229-1.548c-0.573-0.229-1.547-0.458-2.637-0.631l-0.63,7.395c4.7,0.975,10.604,2.865,10.604,8.654
	C98.913,96.364,93.238,99.23,86.704,99.402z"/>
</svg>
